{
    "asset" : {
        "generator" : "Khronos glTF Blender I/O v1.4.40",
        "version" : "2.0"
    },
    "scene" : 0,
    "scenes" : [
        {
            "name" : "Scene",
            "nodes" : [
                3
            ]
        }
    ],
    "nodes" : [
        {
            "mesh" : 0,
            "name" : "Text",
            "rotation" : [
                0.5,
                0.5,
                -0.5,
                0.4999999701976776
            ],
            "scale" : [
                1.2548084259033203,
                1.2548084259033203,
                1.2548084259033203
            ],
            "translation" : [
                0,
                0.32791662216186523,
                0.41312623023986816
            ]
        },
        {
            "mesh" : 1,
            "name" : "Text.001",
            "rotation" : [
                0.5,
                0.5,
                -0.5,
                0.4999999701976776
            ],
            "translation" : [
                0,
                0.04890036582946777,
                1.7749855518341064
            ]
        },
        {
            "mesh" : 2,
            "name" : "Text.002",
            "rotation" : [
                0.5,
                0.5,
                -0.5,
                0.4999999701976776
            ],
            "scale" : [
                0.7502583265304565,
                0.7502583265304565,
                0.7502583265304565
            ],
            "translation" : [
                0,
                0.2694064676761627,
                -1.315237283706665
            ]
        },
        {
            "children" : [
                0,
                1,
                2
            ],
            "name" : "Empty.001"
        }
    ],
    "materials" : [
        {
            "doubleSided" : true,
            "name" : "Material.001",
            "pbrMetallicRoughness" : {
                "baseColorFactor" : [
                    0.004391442518681288,
                    0.11193244159221649,
                    0.8631572127342224,
                    1
                ],
                "metallicFactor" : 0,
                "roughnessFactor" : 0.5
            }
        }
    ],
    "meshes" : [
        {
            "name" : "Text",
            "primitives" : [
                {
                    "attributes" : {
                        "POSITION" : 0,
                        "NORMAL" : 1,
                        "TEXCOORD_0" : 2
                    },
                    "indices" : 3,
                    "material" : 0
                }
            ]
        },
        {
            "name" : "Text.001",
            "primitives" : [
                {
                    "attributes" : {
                        "POSITION" : 4,
                        "NORMAL" : 5,
                        "TEXCOORD_0" : 6
                    },
                    "indices" : 7,
                    "material" : 0
                }
            ]
        },
        {
            "name" : "Text.002",
            "primitives" : [
                {
                    "attributes" : {
                        "POSITION" : 8,
                        "NORMAL" : 9,
                        "TEXCOORD_0" : 10
                    },
                    "indices" : 11,
                    "material" : 0
                }
            ]
        }
    ],
    "accessors" : [
        {
            "bufferView" : 0,
            "componentType" : 5126,
            "count" : 1054,
            "max" : [
                0.19157814979553223,
                0.029999999329447746,
                0.21244309842586517
            ],
            "min" : [
                -0.19157814979553223,
                -0.029999999329447746,
                -0.21244309842586517
            ],
            "type" : "VEC3"
        },
        {
            "bufferView" : 1,
            "componentType" : 5126,
            "count" : 1054,
            "type" : "VEC3"
        },
        {
            "bufferView" : 2,
            "componentType" : 5126,
            "count" : 1054,
            "type" : "VEC2"
        },
        {
            "bufferView" : 3,
            "componentType" : 5123,
            "count" : 1920,
            "type" : "SCALAR"
        },
        {
            "bufferView" : 4,
            "componentType" : 5126,
            "count" : 1998,
            "max" : [
                4.18133544921875,
                0.029999999329447746,
                0
            ],
            "min" : [
                0.010622154921293259,
                -0.029999999329447746,
                -0.5766312479972839
            ],
            "type" : "VEC3"
        },
        {
            "bufferView" : 5,
            "componentType" : 5126,
            "count" : 1998,
            "type" : "VEC3"
        },
        {
            "bufferView" : 6,
            "componentType" : 5126,
            "count" : 1998,
            "type" : "VEC2"
        },
        {
            "bufferView" : 7,
            "componentType" : 5123,
            "count" : 3780,
            "type" : "SCALAR"
        },
        {
            "bufferView" : 8,
            "componentType" : 5126,
            "count" : 916,
            "max" : [
                0.4408194124698639,
                0.029999999329447746,
                0.009863429702818394
            ],
            "min" : [
                0.026555387303233147,
                -0.029999999329447746,
                -0.41502276062965393
            ],
            "type" : "VEC3"
        },
        {
            "bufferView" : 9,
            "componentType" : 5126,
            "count" : 916,
            "type" : "VEC3"
        },
        {
            "bufferView" : 10,
            "componentType" : 5126,
            "count" : 916,
            "type" : "VEC2"
        },
        {
            "bufferView" : 11,
            "componentType" : 5123,
            "count" : 1728,
            "type" : "SCALAR"
        }
    ],
    "bufferViews" : [
        {
            "buffer" : 0,
            "byteLength" : 12648,
            "byteOffset" : 0
        },
        {
            "buffer" : 0,
            "byteLength" : 12648,
            "byteOffset" : 12648
        },
        {
            "buffer" : 0,
            "byteLength" : 8432,
            "byteOffset" : 25296
        },
        {
            "buffer" : 0,
            "byteLength" : 3840,
            "byteOffset" : 33728
        },
        {
            "buffer" : 0,
            "byteLength" : 23976,
            "byteOffset" : 37568
        },
        {
            "buffer" : 0,
            "byteLength" : 23976,
            "byteOffset" : 61544
        },
        {
            "buffer" : 0,
            "byteLength" : 15984,
            "byteOffset" : 85520
        },
        {
            "buffer" : 0,
            "byteLength" : 7560,
            "byteOffset" : 101504
        },
        {
            "buffer" : 0,
            "byteLength" : 10992,
            "byteOffset" : 109064
        },
        {
            "buffer" : 0,
            "byteLength" : 10992,
            "byteOffset" : 120056
        },
        {
            "buffer" : 0,
            "byteLength" : 7328,
            "byteOffset" : 131048
        },
        {
            "buffer" : 0,
            "byteLength" : 3456,
            "byteOffset" : 138376
        }
    ],
    "buffers" : [
        {
            "byteLength" : 141832,
            "uri" : "data:application/octet-stream;base64,"
        }
    ]
}
