{
    "asset" : {
        "generator" : "Khronos glTF Blender I/O v1.4.40",
        "version" : "2.0"
    },
    "scene" : 0,
    "scenes" : [
        {
            "name" : "Scene",
            "nodes" : [
                0
            ]
        }
    ],
    "nodes" : [
        {
            "mesh" : 0,
            "name" : "Ballon",
            "rotation" : [
                -0.7071067094802856,
                0,
                0,
                0.7071067094802856
            ]
        }
    ],
    "materials" : [
        {
            "doubleSided" : true,
            "name" : "BaseMaterial0",
            "pbrMetallicRoughness" : {
                "baseColorFactor" : [
                    0.8262810111045837,
                    0.12390399724245071,
                    0.09302501380443573,
                    1
                ],
                "metallicFactor" : 0
            }
        },
        {
            "doubleSided" : true,
            "name" : "BaseMaterial1",
            "pbrMetallicRoughness" : {
                "baseColorFactor" : [
                    0.3794560134410858,
                    0.3794560134410858,
                    0.3794560134410858,
                    1
                ],
                "metallicFactor" : 0
            }
        }
    ],
    "meshes" : [
        {
            "name" : "buffer-0-mesh-0",
            "primitives" : [
                {
                    "attributes" : {
                        "POSITION" : 0,
                        "NORMAL" : 1,
                        "TEXCOORD_0" : 2
                    },
                    "indices" : 3,
                    "material" : 0
                },
                {
                    "attributes" : {
                        "POSITION" : 4,
                        "NORMAL" : 5,
                        "TEXCOORD_0" : 6
                    },
                    "indices" : 7,
                    "material" : 1
                }
            ]
        }
    ],
    "accessors" : [
        {
            "bufferView" : 0,
            "componentType" : 5126,
            "count" : 2472,
            "max" : [
                0.6036062240600586,
                0.6036067605018616,
                3.589662551879883
            ],
            "min" : [
                -0.6036062240600586,
                -0.6036056876182556,
                1.810124397277832
            ],
            "type" : "VEC3"
        },
        {
            "bufferView" : 1,
            "componentType" : 5126,
            "count" : 2472,
            "type" : "VEC3"
        },
        {
            "bufferView" : 2,
            "componentType" : 5126,
            "count" : 2472,
            "type" : "VEC2"
        },
        {
            "bufferView" : 3,
            "componentType" : 5123,
            "count" : 11904,
            "type" : "SCALAR"
        },
        {
            "bufferView" : 4,
            "componentType" : 5126,
            "count" : 354,
            "max" : [
                0.07708340883255005,
                0.012305590324103832,
                1.9084950685501099
            ],
            "min" : [
                -0.10398387163877487,
                -0.012304558418691158,
                0.04707217216491699
            ],
            "type" : "VEC3"
        },
        {
            "bufferView" : 5,
            "componentType" : 5126,
            "count" : 354,
            "type" : "VEC3"
        },
        {
            "bufferView" : 6,
            "componentType" : 5126,
            "count" : 354,
            "type" : "VEC2"
        },
        {
            "bufferView" : 7,
            "componentType" : 5123,
            "count" : 996,
            "type" : "SCALAR"
        }
    ],
    "bufferViews" : [
        {
            "buffer" : 0,
            "byteLength" : 29664,
            "byteOffset" : 0
        },
        {
            "buffer" : 0,
            "byteLength" : 29664,
            "byteOffset" : 29664
        },
        {
            "buffer" : 0,
            "byteLength" : 19776,
            "byteOffset" : 59328
        },
        {
            "buffer" : 0,
            "byteLength" : 23808,
            "byteOffset" : 79104
        },
        {
            "buffer" : 0,
            "byteLength" : 4248,
            "byteOffset" : 102912
        },
        {
            "buffer" : 0,
            "byteLength" : 4248,
            "byteOffset" : 107160
        },
        {
            "buffer" : 0,
            "byteLength" : 2832,
            "byteOffset" : 111408
        },
        {
            "buffer" : 0,
            "byteLength" : 1992,
            "byteOffset" : 114240
        }
    ],
    "buffers" : [
        {
            "byteLength" : 116232,
            "uri" : "data:application/octet-stream;base64,"
        }
    ]
}
