{
   "accessors" : [
      {
         "bufferView" : 0,
         "byteOffset" : 0,
         "componentType" : 5123,
         "count" : 11904,
         "max" : [ 2241 ],
         "min" : [ 0 ],
         "name" : "buffer-0-group-0-mesh-0-indices",
         "type" : "SCALAR"
      },
      {
         "bufferView" : 1,
         "byteOffset" : 0,
         "componentType" : 5126,
         "count" : 2242,
         "max" : [ 0.6036062240600586, 0.6036062240600586, 1.023072600364685 ],
         "min" : [ -0.6036062240600586, -0.6036062240600586, -0.7564657330513 ],
         "name" : "buffer-0-group-0-mesh-0-position",
         "type" : "VEC3"
      },
      {
         "bufferView" : 1,
         "byteOffset" : 26904,
         "componentType" : 5126,
         "count" : 2242,
         "max" : [ 0.9995361566543579, 0.9995361566543579, 1 ],
         "min" : [ -0.9995361566543579, -0.9995361566543579, -1 ],
         "name" : "buffer-0-group-0-mesh-0-normal",
         "type" : "VEC3"
      },
      {
         "bufferView" : 2,
         "byteOffset" : 0,
         "componentType" : 5126,
         "count" : 2242,
         "max" : [ 0.984375, 0 ],
         "min" : [ 0, -0.952380895614624 ],
         "name" : "buffer-0-group-0-mesh-0-texcoord",
         "type" : "VEC2"
      },
      {
         "bufferView" : 0,
         "byteOffset" : 23808,
         "componentType" : 5123,
         "count" : 996,
         "max" : [ 335 ],
         "min" : [ 0 ],
         "name" : "buffer-0-group-1-mesh-0-indices",
         "type" : "SCALAR"
      },
      {
         "bufferView" : 1,
         "byteOffset" : 53808,
         "componentType" : 5126,
         "count" : 336,
         "max" : [ 0.07708340883255005, 0.01230506971478462, -0.6580950021743774 ],
         "min" : [ -0.1039838716387749, -0.01230507902801037, -2.51951789855957 ],
         "name" : "buffer-0-group-1-mesh-0-position",
         "type" : "VEC3"
      },
      {
         "bufferView" : 1,
         "byteOffset" : 57840,
         "componentType" : 5126,
         "count" : 336,
         "max" : [ 0.9999890923500061, 1, 0.9999973773956299 ],
         "min" : [ -0.9960002899169922, -1, -0.9999979138374329 ],
         "name" : "buffer-0-group-1-mesh-0-normal",
         "type" : "VEC3"
      },
      {
         "bufferView" : 2,
         "byteOffset" : 17936,
         "componentType" : 5126,
         "count" : 336,
         "max" : [ 1, 0 ],
         "min" : [ -3.729205491254106e-05, -0.1666670143604279 ],
         "name" : "buffer-0-group-1-mesh-0-texcoord",
         "type" : "VEC2"
      }
   ],
   "asset" : {
      "extras" : {
         "GOOGLE_processor_version" : 294144208
      },
      "generator" : "Obj2GltfConverter",
      "version" : "2.0"
   },
   "bufferViews" : [
      {
         "buffer" : 0,
         "byteLength" : 25800,
         "byteOffset" : 0,
         "name" : "buffer-0-bufferview-ushort",
         "target" : 34963
      },
      {
         "buffer" : 0,
         "byteLength" : 61872,
         "byteOffset" : 25800,
         "byteStride" : 12,
         "name" : "buffer-0-bufferview-vec3",
         "target" : 34962
      },
      {
         "buffer" : 0,
         "byteLength" : 20624,
         "byteOffset" : 87672,
         "byteStride" : 8,
         "name" : "buffer-0-bufferview-vec2",
         "target" : 34962
      }
   ],
   "buffers" : [
      {
         "byteLength" : 108296,
         "name" : "buffer-0",
         "uri" : "Balloon1.bin"
      }
   ],
   "cameras" : [
      {
         "perspective" : {
            "yfov" : 0.7853981633974483,
            "znear" : 0.1000000014901161
         },
         "type" : "perspective"
      }
   ],
   "extensions" : {
      "KHR_lights_punctual" : {
         "lights" : [
            {
               "color" : [ 1, 0.9333333333333333, 0.8666666666666667 ],
               "intensity" : 0.25,
               "name" : "headLight",
               "type" : "directional"
            },
            {
               "color" : [ 1, 0.9333333333333333, 0.8666666666666667 ],
               "intensity" : 0.324999988079071,
               "name" : "keyLight",
               "type" : "directional"
            }
         ]
      }
   },
   "extensionsUsed" : [ "GOOGLE_backgrounds", "GOOGLE_camera_settings", "KHR_lights_punctual" ],
   "extras" : {
      "GOOGLE_initial_camera_motion" : {
         "motionPath" : "SIDE_TO_SIDE"
      },
      "GOOGLE_lighting_rig" : {
         "disableShadows" : false
      }
   },
   "materials" : [
      {
         "alphaMode" : "OPAQUE",
         "doubleSided" : true,
         "extras" : {
            "__iag_" : true
         },
         "name" : "BaseMaterial0",
         "pbrMetallicRoughness" : {
            "baseColorFactor" : [ 0.826281, 0.123904, 0.0930250122000004, 1 ],
            "metallicFactor" : 0,
            "roughnessFactor" : 1
         }
      },
      {
         "alphaMode" : "OPAQUE",
         "doubleSided" : true,
         "extras" : {
            "__iag_" : true
         },
         "name" : "BaseMaterial1",
         "pbrMetallicRoughness" : {
            "baseColorFactor" : [ 0.379456, 0.379456, 0.379456, 1 ],
            "metallicFactor" : 0,
            "roughnessFactor" : 1
         }
      }
   ],
   "meshes" : [
      {
         "name" : "buffer-0-mesh-0",
         "primitives" : [
            {
               "attributes" : {
                  "NORMAL" : 2,
                  "POSITION" : 1,
                  "TEXCOORD_0" : 3
               },
               "indices" : 0,
               "material" : 0,
               "mode" : 4
            },
            {
               "attributes" : {
                  "NORMAL" : 6,
                  "POSITION" : 5,
                  "TEXCOORD_0" : 7
               },
               "indices" : 4,
               "material" : 1,
               "mode" : 4
            }
         ]
      }
   ],
   "nodes" : [
      {
         "mesh" : 0,
         "name" : "node-0"
      },
      {
         "children" : [ 2 ]
      },
      {
         "children" : [ 3 ],
         "extras" : {
            "isTransformNode" : 1
         },
         "rotation" : [ 0.7071067811865472, 0, 0, -0.7071067811865478 ],
         "translation" : [ -0.008856476247310648, -0.008856476247310648, 0.185334364369847 ]
      },
      {
         "children" : [ 0 ],
         "translation" : [ 0.008856476247310648, 0.008856476247310648, -0.185334364369847 ]
      },
      {
         "camera" : 0,
         "children" : [ 5 ],
         "rotation" : [
            -2.525445655954109e-16,
            0.02439045820846594,
            6.161510669836071e-18,
            0.9997025085236014
         ],
         "translation" : [ 0.1987665115205971, -0.008856476247309411, 4.438289158005619 ]
      },
      {
         "extensions" : {
            "KHR_lights_punctual" : {
               "light" : 0
            }
         },
         "extras" : {
            "isHeadLight" : 1
         },
         "name" : "headLightNode",
         "translation" : [ -2.529180677873312, 1.264590338936656, 1.264590338936656 ]
      },
      {
         "extensions" : {
            "KHR_lights_punctual" : {
               "light" : 1
            }
         },
         "extras" : {
            "isKeyLight" : 1
         },
         "name" : "keyLightNode",
         "rotation" : [ -0.7505326882858236, -0.3752663441429118, 0, 0.5439447166468927 ],
         "scale" : [ 0, 0, 2.554472484652046 ],
         "translation" : [ -2.557426581316789, 4.694354529011411, -2.377994339850177 ]
      }
   ],
   "scene" : 0,
   "scenes" : [
      {
         "extensions" : {
            "GOOGLE_backgrounds" : {
               "color" : [ 0, 0.4745098039215686, 0.4196078431372549 ]
            },
            "GOOGLE_camera_settings" : {
               "pivot" : [ 0, 0, 0 ]
            }
         },
         "extras" : {
            "GOOGLE_camera_index" : {
               "cameraIndex" : 0,
               "nodeIndex" : 4
            },
            "GOOGLE_geometry_data" : {
               "stats" : {
                  "centroid" : [ -0.002954096664743038, -0.4145904402926803, 0.1764781448018692 ],
                  "radius" : 2.529180677873312,
                  "stdev" : 0.8817572082446814
               },
               "visualCenterPoint" : [ -0.008856476247310648, -0.008856476247310648, 0.185334364369847 ]
            },
            "GOOGLE_hemi_light" : {
               "groundColor" : [ 0, 0.4745098039215686, 0.4196078431372549 ]
            }
         },
         "name" : "scene-0",
         "nodes" : [ 1, 4, 6 ]
      }
   ]
}
