{
    "asset" : {
        "generator" : "Khronos glTF Blender I/O v1.4.40",
        "version" : "2.0"
    },
    "scene" : 0,
    "scenes" : [
        {
            "name" : "Scene",
            "nodes" : [
                0,
                1,
                2,
                3,
                4
            ]
        }
    ],
    "nodes" : [
        {
            "name" : "Light",
            "rotation" : [
                0.16907575726509094,
                0.7558803558349609,
                -0.27217137813568115,
                0.570947527885437
            ],
            "translation" : [
                4.076245307922363,
                5.903861999511719,
                -1.0054539442062378
            ]
        },
        {
            "name" : "Camera",
            "rotation" : [
                0.5,
                0.5,
                -0.5,
                0.4999999701976776
            ],
            "translation" : [
                7,
                0,
                0
            ]
        },
        {
            "name" : "Empty",
            "rotation" : [
                0.5,
                0.5,
                -0.5,
                0.4999999701976776
            ]
        },
        {
            "name" : "Line",
            "translation" : [
                0,
                1.48647141456604,
                0.5304000377655029
            ]
        },
        {
            "mesh" : 0,
            "name" : "Cube",
            "scale" : [
                -0.08986079692840576,
                -0.08986079692840576,
                -0.08986079692840576
            ]
        }
    ],
    "materials" : [
        {
            "doubleSided" : true,
            "emissiveFactor" : [
                0.055834073660285366,
                0.0006995327874948498,
                0.0031896055220008712
            ],
            "name" : "Material.001",
            "pbrMetallicRoughness" : {
                "baseColorFactor" : [
                    0.5583407282829285,
                    0.0069953277707099915,
                    0.03189605474472046,
                    1
                ],
                "metallicFactor" : 0,
                "roughnessFactor" : 0.5
            }
        }
    ],
    "meshes" : [
        {
            "name" : "Cube.001",
            "primitives" : [
                {
                    "attributes" : {
                        "POSITION" : 0,
                        "NORMAL" : 1,
                        "TEXCOORD_0" : 2
                    },
                    "indices" : 3,
                    "material" : 0
                }
            ]
        }
    ],
    "accessors" : [
        {
            "bufferView" : 0,
            "componentType" : 5126,
            "count" : 470,
            "max" : [
                1,
                13.721450805664062,
                13.26250171661377
            ],
            "min" : [
                -1.0000076293945312,
                -13.412182807922363,
                -12.666580200195312
            ],
            "type" : "VEC3"
        },
        {
            "bufferView" : 1,
            "componentType" : 5126,
            "count" : 470,
            "type" : "VEC3"
        },
        {
            "bufferView" : 2,
            "componentType" : 5126,
            "count" : 470,
            "type" : "VEC2"
        },
        {
            "bufferView" : 3,
            "componentType" : 5123,
            "count" : 816,
            "type" : "SCALAR"
        }
    ],
    "bufferViews" : [
        {
            "buffer" : 0,
            "byteLength" : 5640,
            "byteOffset" : 0
        },
        {
            "buffer" : 0,
            "byteLength" : 5640,
            "byteOffset" : 5640
        },
        {
            "buffer" : 0,
            "byteLength" : 3760,
            "byteOffset" : 11280
        },
        {
            "buffer" : 0,
            "byteLength" : 1632,
            "byteOffset" : 15040
        }
    ],
    "buffers" : [
        {
            "byteLength" : 16672,
            "uri" : "data:application/octet-stream;base64,"
        }
    ]
}
