{
    "asset" : {
        "generator" : "Khronos glTF Blender I/O v1.1.46",
        "version" : "2.0"
    },
    "scene" : 0,
    "scenes" : [
        {
            "name" : "Scene",
            "nodes" : [
                0,
                1,
                4
            ]
        }
    ],
    "nodes" : [
        {
            "name" : "Light",
            "rotation" : [
                0.16907575726509094,
                0.7558803558349609,
                -0.27217137813568115,
                0.570947527885437
            ],
            "translation" : [
                4.076245307922363,
                5.903861999511719,
                -1.0054539442062378
            ]
        },
        {
            "name" : "Camera",
            "translation" : [
                0,
                13.899999618530273,
                -0.14999999105930328
            ]
        },
        {
            "mesh" : 0,
            "name" : "Icosphere"
        },
        {
            "mesh" : 1,
            "name" : "Icosphere.001"
        },
        {
            "children" : [
                2,
                3
            ],
            "name" : "Empty",
            "scale" : [
                0.09062474966049194,
                0.09062474966049194,
                0.09062474966049194
            ]
        }
    ],
    "animations" : [
        {
            "channels" : [
                {
                    "sampler" : 0,
                    "target" : {
                        "node" : 4,
                        "path" : "translation"
                    }
                },
                {
                    "sampler" : 1,
                    "target" : {
                        "node" : 4,
                        "path" : "rotation"
                    }
                }
            ],
            "name" : "EmptyAction",
            "samplers" : [
                {
                    "input" : 10,
                    "interpolation" : "LINEAR",
                    "output" : 11
                },
                {
                    "input" : 10,
                    "interpolation" : "LINEAR",
                    "output" : 12
                }
            ]
        }
    ],
    "materials" : [
        {
            "doubleSided" : true,
            "emissiveFactor" : [
                0.10868604481220245,
                0.007509064394980669,
                0.0063066123984754086
            ],
            "name" : "Material.001",
            "pbrMetallicRoughness" : {}
        },
        {
            "doubleSided" : true,
            "emissiveFactor" : [
                0.2221776694059372,
                0.707394003868103,
                0.03423039987683296
            ],
            "name" : "Material.002",
            "pbrMetallicRoughness" : {}
        }
    ],
    "meshes" : [
        {
            "name" : "Icosphere",
            "primitives" : [
                {
                    "attributes" : {
                        "POSITION" : 0,
                        "NORMAL" : 1,
                        "TEXCOORD_0" : 2,
                        "JOINTS_0" : 3,
                        "WEIGHTS_0" : 4
                    },
                    "indices" : 5,
                    "material" : 0
                }
            ]
        },
        {
            "name" : "Icosphere.001",
            "primitives" : [
                {
                    "attributes" : {
                        "POSITION" : 6,
                        "NORMAL" : 7,
                        "TEXCOORD_0" : 8
                    },
                    "indices" : 9,
                    "material" : 1
                }
            ]
        }
    ],
    "accessors" : [
        {
            "bufferView" : 0,
            "componentType" : 5126,
            "count" : 57051,
            "max" : [
                1.0273213386535645,
                1.0590651035308838,
                1.0598971843719482
            ],
            "min" : [
                -1.0867117643356323,
                -1.0658645629882812,
                -1.0909812450408936
            ],
            "type" : "VEC3"
        },
        {
            "bufferView" : 1,
            "componentType" : 5126,
            "count" : 57051,
            "type" : "VEC3"
        },
        {
            "bufferView" : 2,
            "componentType" : 5126,
            "count" : 57051,
            "type" : "VEC2"
        },
        {
            "bufferView" : 3,
            "componentType" : 5123,
            "count" : 57051,
            "type" : "VEC4"
        },
        {
            "bufferView" : 4,
            "componentType" : 5126,
            "count" : 57051,
            "type" : "VEC4"
        },
        {
            "bufferView" : 5,
            "componentType" : 5123,
            "count" : 125640,
            "type" : "SCALAR"
        },
        {
            "bufferView" : 6,
            "componentType" : 5126,
            "count" : 9000,
            "max" : [
                1.2052494287490845,
                1.2543007135391235,
                1.241472840309143
            ],
            "min" : [
                -1.2712819576263428,
                -1.2591367959976196,
                -1.2752673625946045
            ],
            "type" : "VEC3"
        },
        {
            "bufferView" : 7,
            "componentType" : 5126,
            "count" : 9000,
            "type" : "VEC3"
        },
        {
            "bufferView" : 8,
            "componentType" : 5126,
            "count" : 9000,
            "type" : "VEC2"
        },
        {
            "bufferView" : 9,
            "componentType" : 5123,
            "count" : 15300,
            "type" : "SCALAR"
        },
        {
            "bufferView" : 10,
            "componentType" : 5126,
            "count" : 249,
            "max" : [
                10.375
            ],
            "min" : [
                0.041666666666666664
            ],
            "type" : "SCALAR"
        },
        {
            "bufferView" : 11,
            "componentType" : 5126,
            "count" : 249,
            "type" : "VEC3"
        },
        {
            "bufferView" : 12,
            "componentType" : 5126,
            "count" : 249,
            "type" : "VEC4"
        }
    ],
    "bufferViews" : [
        {
            "buffer" : 0,
            "byteLength" : 684612,
            "byteOffset" : 0
        },
        {
            "buffer" : 0,
            "byteLength" : 684612,
            "byteOffset" : 684612
        },
        {
            "buffer" : 0,
            "byteLength" : 456408,
            "byteOffset" : 1369224
        },
        {
            "buffer" : 0,
            "byteLength" : 456408,
            "byteOffset" : 1825632
        },
        {
            "buffer" : 0,
            "byteLength" : 912816,
            "byteOffset" : 2282040
        },
        {
            "buffer" : 0,
            "byteLength" : 251280,
            "byteOffset" : 3194856
        },
        {
            "buffer" : 0,
            "byteLength" : 108000,
            "byteOffset" : 3446136
        },
        {
            "buffer" : 0,
            "byteLength" : 108000,
            "byteOffset" : 3554136
        },
        {
            "buffer" : 0,
            "byteLength" : 72000,
            "byteOffset" : 3662136
        },
        {
            "buffer" : 0,
            "byteLength" : 30600,
            "byteOffset" : 3734136
        },
        {
            "buffer" : 0,
            "byteLength" : 996,
            "byteOffset" : 3764736
        },
        {
            "buffer" : 0,
            "byteLength" : 2988,
            "byteOffset" : 3765732
        },
        {
            "buffer" : 0,
            "byteLength" : 3984,
            "byteOffset" : 3768720
        }
    ],
    "buffers" : [
        {
            "byteLength" : 3772704,
            "uri" : "Covid2.bin"
        }
    ]
}
