{
    "asset" : {
        "generator" : "Khronos glTF Blender I/O v1.4.40",
        "version" : "2.0"
    },
    "scene" : 0,
    "scenes" : [
        {
            "name" : "Scene",
            "nodes" : [
                0,
                1,
                2,
                3,
                4
            ]
        }
    ],
    "nodes" : [
        {
            "name" : "Light",
            "rotation" : [
                0.16907575726509094,
                0.7558803558349609,
                -0.27217137813568115,
                0.570947527885437
            ],
            "translation" : [
                4.076245307922363,
                5.903861999511719,
                -1.0054539442062378
            ]
        },
        {
            "name" : "Camera",
            "rotation" : [
                0.483536034822464,
                0.33687159419059753,
                -0.20870360732078552,
                0.7804827094078064
            ],
            "translation" : [
                7.358891487121582,
                4.958309173583984,
                6.925790786743164
            ]
        },
        {
            "mesh" : 0,
            "name" : "Torus",
            "scale" : [
                0.9133808016777039,
                1,
                1
            ]
        },
        {
            "name" : "Empty",
            "rotation" : [
                1,
                0,
                0,
                7.549790126404332e-08
            ],
            "translation" : [
                -11.240962982177734,
                0,
                7.825589179992676
            ]
        },
        {
            "mesh" : 1,
            "name" : "Torus.001",
            "scale" : [
                1.0029600858688354,
                0.7106760740280151,
                1.026314616203308
            ]
        }
    ],
    "materials" : [
        {
            "doubleSided" : true,
            "name" : "Material.001",
            "pbrMetallicRoughness" : {
                "baseColorFactor" : [
                    0.8000000715255737,
                    0.5561968684196472,
                    0.5944266319274902,
                    1
                ],
                "metallicFactor" : 0,
                "roughnessFactor" : 0.5
            }
        }
    ],
    "meshes" : [
        {
            "name" : "Torus",
            "primitives" : [
                {
                    "attributes" : {
                        "POSITION" : 0,
                        "NORMAL" : 1,
                        "TEXCOORD_0" : 2
                    },
                    "indices" : 3
                }
            ]
        },
        {
            "name" : "Torus.001",
            "primitives" : [
                {
                    "attributes" : {
                        "POSITION" : 4,
                        "NORMAL" : 5,
                        "TEXCOORD_0" : 6
                    },
                    "indices" : 7,
                    "material" : 0
                }
            ]
        }
    ],
    "accessors" : [
        {
            "bufferView" : 0,
            "componentType" : 5126,
            "count" : 460,
            "max" : [
                2.239894151687622,
                0.21650634706020355,
                1.2310097217559814
            ],
            "min" : [
                -2.239894151687622,
                -0.21650634706020355,
                -1.2310097217559814
            ],
            "type" : "VEC3"
        },
        {
            "bufferView" : 1,
            "componentType" : 5126,
            "count" : 460,
            "type" : "VEC3"
        },
        {
            "bufferView" : 2,
            "componentType" : 5126,
            "count" : 460,
            "type" : "VEC2"
        },
        {
            "bufferView" : 3,
            "componentType" : 5123,
            "count" : 720,
            "type" : "SCALAR"
        },
        {
            "bufferView" : 4,
            "componentType" : 5126,
            "count" : 1442,
            "max" : [
                1.9940972328186035,
                0.25,
                -0.007722258567810059
            ],
            "min" : [
                -1.9940972328186035,
                -0.25,
                -2.443622589111328
            ],
            "type" : "VEC3"
        },
        {
            "bufferView" : 5,
            "componentType" : 5126,
            "count" : 1442,
            "type" : "VEC3"
        },
        {
            "bufferView" : 6,
            "componentType" : 5126,
            "count" : 1442,
            "type" : "VEC2"
        },
        {
            "bufferView" : 7,
            "componentType" : 5123,
            "count" : 2340,
            "type" : "SCALAR"
        }
    ],
    "bufferViews" : [
        {
            "buffer" : 0,
            "byteLength" : 5520,
            "byteOffset" : 0
        },
        {
            "buffer" : 0,
            "byteLength" : 5520,
            "byteOffset" : 5520
        },
        {
            "buffer" : 0,
            "byteLength" : 3680,
            "byteOffset" : 11040
        },
        {
            "buffer" : 0,
            "byteLength" : 1440,
            "byteOffset" : 14720
        },
        {
            "buffer" : 0,
            "byteLength" : 17304,
            "byteOffset" : 16160
        },
        {
            "buffer" : 0,
            "byteLength" : 17304,
            "byteOffset" : 33464
        },
        {
            "buffer" : 0,
            "byteLength" : 11536,
            "byteOffset" : 50768
        },
        {
            "buffer" : 0,
            "byteLength" : 4680,
            "byteOffset" : 62304
        }
    ],
    "buffers" : [
        {
            "byteLength" : 66984,
            "uri" : "data:application/octet-stream;base64,"
        }
    ]
}
