{
    "asset" : {
        "generator" : "Khronos glTF Blender I/O v1.4.40",
        "version" : "2.0"
    },
    "scene" : 0,
    "scenes" : [
        {
            "name" : "Scene",
            "nodes" : [
                0,
                1,
                2
            ]
        }
    ],
    "nodes" : [
        {
            "name" : "Light",
            "rotation" : [
                0.16907575726509094,
                0.7558803558349609,
                -0.27217137813568115,
                0.570947527885437
            ],
            "translation" : [
                4.076245307922363,
                5.903861999511719,
                -1.0054539442062378
            ]
        },
        {
            "name" : "Camera",
            "rotation" : [
                0.6072489023208618,
                0.2581261396408081,
                -0.2179764360189438,
                0.7191007733345032
            ],
            "translation" : [
                5.886862277984619,
                1.4716495275497437,
                7.152096748352051
            ]
        },
        {
            "mesh" : 0,
            "name" : "Torus",
            "rotation" : [
                0.4932572841644287,
                -0.5066529512405396,
                0.5066530108451843,
                0.4932572841644287
            ],
            "scale" : [
                0.5904325842857361,
                0.36573007702827454,
                0.6464254856109619
            ]
        }
    ],
    "materials" : [
        {
            "doubleSided" : true,
            "name" : "Material.001",
            "pbrMetallicRoughness" : {}
        }
    ],
    "meshes" : [
        {
            "name" : "Torus",
            "primitives" : [
                {
                    "attributes" : {
                        "POSITION" : 0,
                        "NORMAL" : 1,
                        "TEXCOORD_0" : 2
                    },
                    "indices" : 3,
                    "material" : 0
                }
            ]
        }
    ],
    "accessors" : [
        {
            "bufferView" : 0,
            "componentType" : 5126,
            "count" : 4880,
            "max" : [
                2.1168394088745117,
                0.23477834463119507,
                -0.0072023868560791016
            ],
            "min" : [
                -2.1168394088745117,
                -0.2347785234451294,
                -2.2288694381713867
            ],
            "type" : "VEC3"
        },
        {
            "bufferView" : 1,
            "componentType" : 5126,
            "count" : 4880,
            "type" : "VEC3"
        },
        {
            "bufferView" : 2,
            "componentType" : 5126,
            "count" : 4880,
            "type" : "VEC2"
        },
        {
            "bufferView" : 3,
            "componentType" : 5123,
            "count" : 27348,
            "type" : "SCALAR"
        }
    ],
    "bufferViews" : [
        {
            "buffer" : 0,
            "byteLength" : 58560,
            "byteOffset" : 0
        },
        {
            "buffer" : 0,
            "byteLength" : 58560,
            "byteOffset" : 58560
        },
        {
            "buffer" : 0,
            "byteLength" : 39040,
            "byteOffset" : 117120
        },
        {
            "buffer" : 0,
            "byteLength" : 54696,
            "byteOffset" : 156160
        }
    ],
    "buffers" : [
        {
            "byteLength" : 210856,
            "uri" : "data:application/octet-stream;base64,"
        }
    ]
}
