{
    "asset" : {
        "generator" : "Khronos glTF Blender I/O v1.3.48",
        "version" : "2.0"
    },
    "scene" : 0,
    "scenes" : [
        {
            "name" : "Scene",
            "nodes" : [
                0
            ]
        }
    ],
    "nodes" : [
        {
            "mesh" : 0,
            "name" : "rock",
            "scale" : [
                0.5,
                0.5,
                0.5
            ]
        }
    ],
    "materials" : [
        {
            "doubleSided" : true,
            "emissiveFactor" : [
                0,
                0,
                0
            ],
            "name" : "Material.001",
            "pbrMetallicRoughness" : {
                "baseColorFactor" : [
                    0.8000000715255737,
                    0.011421122588217258,
                    0.013450083322823048,
                    1
                ],
                "metallicFactor" : 0,
                "roughnessFactor" : 0.5
            }
        }
    ],
    "meshes" : [
        {
            "extras" : {
                "targetNames" : [
                    "Displace.001",
                    "Displace.002",
                    "Displace.003"
                ]
            },
            "name" : "rock",
            "primitives" : [
                {
                    "attributes" : {
                        "POSITION" : 0,
                        "NORMAL" : 1
                    },
                    "indices" : 2,
                    "material" : 0,
                    "targets" : [
                        {
                            "POSITION" : 3,
                            "NORMAL" : 4
                        },
                        {
                            "POSITION" : 5,
                            "NORMAL" : 6
                        },
                        {
                            "POSITION" : 7,
                            "NORMAL" : 8
                        }
                    ]
                }
            ],
            "weights" : [
                0,
                0,
                0
            ]
        }
    ],
    "accessors" : [
        {
            "bufferView" : 0,
            "componentType" : 5126,
            "count" : 13,
            "max" : [
                0.4028405547142029,
                0.6274434924125671,
                -0.14428940415382385
            ],
            "min" : [
                0.36027294397354126,
                0.5062594413757324,
                -0.21836477518081665
            ],
            "type" : "VEC3"
        },
        {
            "bufferView" : 1,
            "componentType" : 5126,
            "count" : 13,
            "type" : "VEC3"
        },
        {
            "bufferView" : 2,
            "componentType" : 5123,
            "count" : 30,
            "type" : "SCALAR"
        },
        {
            "bufferView" : 3,
            "componentType" : 5126,
            "count" : 13,
            "max" : [
                0.08929458260536194,
                0.03408771753311157,
                0.014621838927268982
            ],
            "min" : [
                0.04634213447570801,
                0.006757140159606934,
                -0.019133031368255615
            ],
            "type" : "VEC3"
        },
        {
            "bufferView" : 4,
            "componentType" : 5126,
            "count" : 13,
            "type" : "VEC3"
        },
        {
            "bufferView" : 5,
            "componentType" : 5126,
            "count" : 13,
            "max" : [
                -0.0014341473579406738,
                -0.0001569986343383789,
                0.0006937533617019653
            ],
            "min" : [
                -0.005899578332901001,
                -0.003198981285095215,
                -0.0008940547704696655
            ],
            "type" : "VEC3"
        },
        {
            "bufferView" : 6,
            "componentType" : 5126,
            "count" : 13,
            "type" : "VEC3"
        },
        {
            "bufferView" : 7,
            "componentType" : 5126,
            "count" : 13,
            "max" : [
                0.0005929470062255859,
                0.00032150745391845703,
                0.0015286505222320557
            ],
            "min" : [
                -0.009933799505233765,
                -0.00257265567779541,
                -0.0014175474643707275
            ],
            "type" : "VEC3"
        },
        {
            "bufferView" : 8,
            "componentType" : 5126,
            "count" : 13,
            "type" : "VEC3"
        }
    ],
    "bufferViews" : [
        {
            "buffer" : 0,
            "byteLength" : 156,
            "byteOffset" : 0
        },
        {
            "buffer" : 0,
            "byteLength" : 156,
            "byteOffset" : 156
        },
        {
            "buffer" : 0,
            "byteLength" : 60,
            "byteOffset" : 312
        },
        {
            "buffer" : 0,
            "byteLength" : 156,
            "byteOffset" : 372
        },
        {
            "buffer" : 0,
            "byteLength" : 156,
            "byteOffset" : 528
        },
        {
            "buffer" : 0,
            "byteLength" : 156,
            "byteOffset" : 684
        },
        {
            "buffer" : 0,
            "byteLength" : 156,
            "byteOffset" : 840
        },
        {
            "buffer" : 0,
            "byteLength" : 156,
            "byteOffset" : 996
        },
        {
            "buffer" : 0,
            "byteLength" : 156,
            "byteOffset" : 1152
        }
    ],
    "buffers" : [
        {
            "byteLength" : 1308,
            "uri" : "data:application/octet-stream;base64,"
        }
    ]
}
