{
    "asset" : {
        "generator" : "Khronos glTF Blender I/O v1.4.40",
        "version" : "2.0"
    },
    "scene" : 0,
    "scenes" : [
        {
            "name" : "Scene",
            "nodes" : [
                0,
                1,
                2,
                3,
                4
            ]
        }
    ],
    "nodes" : [
        {
            "mesh" : 0,
            "name" : "Cylinder.001",
            "rotation" : [
                0,
                0,
                -0.7071067690849304,
                0.7071068286895752
            ],
            "scale" : [
                0.5066576600074768,
                0.14362531900405884,
                0.2760014832019806
            ],
            "translation" : [
                0.16739422082901,
                3.7013566493988037,
                0.27702152729034424
            ]
        },
        {
            "mesh" : 1,
            "name" : "Sphere",
            "scale" : [
                0.3748922348022461,
                1,
                1
            ],
            "translation" : [
                -0.03186440467834473,
                3.891866445541382,
                -0.01929404027760029
            ]
        },
        {
            "mesh" : 2,
            "name" : "Cube",
            "scale" : [
                0.507225513458252,
                1,
                1
            ],
            "translation" : [
                -0.09720700234174728,
                2.0260791778564453,
                0
            ]
        },
        {
            "mesh" : 3,
            "name" : "Cube.001",
            "scale" : [
                0.507225513458252,
                1,
                1
            ],
            "translation" : [
                -0.09720700234174728,
                2.0260791778564453,
                0
            ]
        },
        {
            "mesh" : 4,
            "name" : "Cube.002",
            "scale" : [
                0.507225513458252,
                1,
                1
            ],
            "translation" : [
                -0.09720700234174728,
                2.0260791778564453,
                0
            ]
        }
    ],
    "materials" : [
        {
            "doubleSided" : true,
            "name" : "Eyes",
            "pbrMetallicRoughness" : {
                "baseColorFactor" : [
                    0.03386237472295761,
                    0.8000000715255737,
                    0.0030076357070356607,
                    1
                ],
                "metallicFactor" : 0,
                "roughnessFactor" : 0.5
            }
        },
        {
            "doubleSided" : true,
            "name" : "Head",
            "pbrMetallicRoughness" : {
                "baseColorFactor" : [
                    0.06372076272964478,
                    0.06372076272964478,
                    0.06372076272964478,
                    1
                ],
                "metallicFactor" : 0,
                "roughnessFactor" : 0.5
            }
        },
        {
            "doubleSided" : true,
            "name" : "Body",
            "pbrMetallicRoughness" : {
                "baseColorFactor" : [
                    0.06372076272964478,
                    0.06372076272964478,
                    0.06372076272964478,
                    1
                ],
                "metallicFactor" : 0,
                "roughnessFactor" : 0.5
            }
        },
        {
            "doubleSided" : true,
            "name" : "BodyVis",
            "pbrMetallicRoughness" : {
                "baseColorFactor" : [
                    0.03386237472295761,
                    0.8000000715255737,
                    0.0030076357070356607,
                    1
                ],
                "metallicFactor" : 0,
                "roughnessFactor" : 0.5
            }
        }
    ],
    "meshes" : [
        {
            "name" : "Cylinder.002",
            "primitives" : [
                {
                    "attributes" : {
                        "POSITION" : 0,
                        "NORMAL" : 1,
                        "TEXCOORD_0" : 2
                    },
                    "indices" : 3,
                    "material" : 0
                }
            ]
        },
        {
            "name" : "Sphere",
            "primitives" : [
                {
                    "attributes" : {
                        "POSITION" : 4,
                        "NORMAL" : 5,
                        "TEXCOORD_0" : 6
                    },
                    "indices" : 7,
                    "material" : 1
                }
            ]
        },
        {
            "name" : "Cube",
            "primitives" : [
                {
                    "attributes" : {
                        "POSITION" : 8,
                        "NORMAL" : 9,
                        "TEXCOORD_0" : 10
                    },
                    "indices" : 11,
                    "material" : 2
                }
            ]
        },
        {
            "name" : "Cube.001",
            "primitives" : [
                {
                    "attributes" : {
                        "POSITION" : 12,
                        "NORMAL" : 13,
                        "TEXCOORD_0" : 14
                    },
                    "indices" : 15,
                    "material" : 3
                }
            ]
        },
        {
            "name" : "Cube.003",
            "primitives" : [
                {
                    "attributes" : {
                        "POSITION" : 16,
                        "NORMAL" : 17,
                        "TEXCOORD_0" : 18
                    },
                    "indices" : 19,
                    "material" : 2
                }
            ]
        }
    ],
    "accessors" : [
        {
            "bufferView" : 0,
            "componentType" : 5126,
            "count" : 28,
            "max" : [
                0.9037654399871826,
                0.7781637907028198,
                0.9270073771476746
            ],
            "min" : [
                -0.9037656188011169,
                0.7781636714935303,
                -3.3794405460357666
            ],
            "type" : "VEC3"
        },
        {
            "bufferView" : 1,
            "componentType" : 5126,
            "count" : 28,
            "type" : "VEC3"
        },
        {
            "bufferView" : 2,
            "componentType" : 5126,
            "count" : 28,
            "type" : "VEC2"
        },
        {
            "bufferView" : 3,
            "componentType" : 5123,
            "count" : 72,
            "type" : "SCALAR"
        },
        {
            "bufferView" : 4,
            "componentType" : 5126,
            "count" : 568,
            "max" : [
                0.9146199226379395,
                0.5138999223709106,
                1.159485101699829
            ],
            "min" : [
                -1.1238386631011963,
                -0.7951171398162842,
                -1.1827661991119385
            ],
            "type" : "VEC3"
        },
        {
            "bufferView" : 5,
            "componentType" : 5126,
            "count" : 568,
            "type" : "VEC3"
        },
        {
            "bufferView" : 6,
            "componentType" : 5126,
            "count" : 568,
            "type" : "VEC2"
        },
        {
            "bufferView" : 7,
            "componentType" : 5123,
            "count" : 888,
            "type" : "SCALAR"
        },
        {
            "bufferView" : 8,
            "componentType" : 5126,
            "count" : 156,
            "max" : [
                1.089514970779419,
                1,
                1
            ],
            "min" : [
                -1,
                -1,
                -1
            ],
            "type" : "VEC3"
        },
        {
            "bufferView" : 9,
            "componentType" : 5126,
            "count" : 156,
            "type" : "VEC3"
        },
        {
            "bufferView" : 10,
            "componentType" : 5126,
            "count" : 156,
            "type" : "VEC2"
        },
        {
            "bufferView" : 11,
            "componentType" : 5123,
            "count" : 246,
            "type" : "SCALAR"
        },
        {
            "bufferView" : 12,
            "componentType" : 5126,
            "count" : 8,
            "max" : [
                0.9924918413162231,
                0.7024335265159607,
                0.7024334669113159
            ],
            "min" : [
                0.9924918413162231,
                -0.7024335265159607,
                -0.7024334669113159
            ],
            "type" : "VEC3"
        },
        {
            "bufferView" : 13,
            "componentType" : 5126,
            "count" : 8,
            "type" : "VEC3"
        },
        {
            "bufferView" : 14,
            "componentType" : 5126,
            "count" : 8,
            "type" : "VEC2"
        },
        {
            "bufferView" : 15,
            "componentType" : 5123,
            "count" : 12,
            "type" : "SCALAR"
        },
        {
            "bufferView" : 16,
            "componentType" : 5126,
            "count" : 4,
            "max" : [
                0.9924918413162231,
                0.23414453864097595,
                0.7024334669113159
            ],
            "min" : [
                0.9924918413162231,
                -0.23414459824562073,
                -0.7024334669113159
            ],
            "type" : "VEC3"
        },
        {
            "bufferView" : 17,
            "componentType" : 5126,
            "count" : 4,
            "type" : "VEC3"
        },
        {
            "bufferView" : 18,
            "componentType" : 5126,
            "count" : 4,
            "type" : "VEC2"
        },
        {
            "bufferView" : 19,
            "componentType" : 5123,
            "count" : 6,
            "type" : "SCALAR"
        }
    ],
    "bufferViews" : [
        {
            "buffer" : 0,
            "byteLength" : 336,
            "byteOffset" : 0
        },
        {
            "buffer" : 0,
            "byteLength" : 336,
            "byteOffset" : 336
        },
        {
            "buffer" : 0,
            "byteLength" : 224,
            "byteOffset" : 672
        },
        {
            "buffer" : 0,
            "byteLength" : 144,
            "byteOffset" : 896
        },
        {
            "buffer" : 0,
            "byteLength" : 6816,
            "byteOffset" : 1040
        },
        {
            "buffer" : 0,
            "byteLength" : 6816,
            "byteOffset" : 7856
        },
        {
            "buffer" : 0,
            "byteLength" : 4544,
            "byteOffset" : 14672
        },
        {
            "buffer" : 0,
            "byteLength" : 1776,
            "byteOffset" : 19216
        },
        {
            "buffer" : 0,
            "byteLength" : 1872,
            "byteOffset" : 20992
        },
        {
            "buffer" : 0,
            "byteLength" : 1872,
            "byteOffset" : 22864
        },
        {
            "buffer" : 0,
            "byteLength" : 1248,
            "byteOffset" : 24736
        },
        {
            "buffer" : 0,
            "byteLength" : 492,
            "byteOffset" : 25984
        },
        {
            "buffer" : 0,
            "byteLength" : 96,
            "byteOffset" : 26476
        },
        {
            "buffer" : 0,
            "byteLength" : 96,
            "byteOffset" : 26572
        },
        {
            "buffer" : 0,
            "byteLength" : 64,
            "byteOffset" : 26668
        },
        {
            "buffer" : 0,
            "byteLength" : 24,
            "byteOffset" : 26732
        },
        {
            "buffer" : 0,
            "byteLength" : 48,
            "byteOffset" : 26756
        },
        {
            "buffer" : 0,
            "byteLength" : 48,
            "byteOffset" : 26804
        },
        {
            "buffer" : 0,
            "byteLength" : 32,
            "byteOffset" : 26852
        },
        {
            "buffer" : 0,
            "byteLength" : 12,
            "byteOffset" : 26884
        }
    ],
    "buffers" : [
        {
            "byteLength" : 26896,
            "uri" : "data:application/octet-stream;base64,"
        }
    ]
}
